<?xml version="1.0" encoding="UTF-8" standalone="no"?>
<!-- Created with Inkscape (http://www.inkscape.org/) -->

<svg
   width="187.30933"
   height="187.53564"
   viewBox="0 0 49.558925 49.618805"
   version="1.1"
   id="svg1"
   xml:space="preserve"
   inkscape:version="1.3 (0e150ed6c4, 2023-07-21)"
   sodipodi:docname="botu'-design.svg.2024_03_10_13_09_24.0.svg"
   xmlns:inkscape="http://www.inkscape.org/namespaces/inkscape"
   xmlns:sodipodi="http://sodipodi.sourceforge.net/DTD/sodipodi-0.dtd"
   xmlns="http://www.w3.org/2000/svg"
   xmlns:svg="http://www.w3.org/2000/svg"><sodipodi:namedview
     id="namedview1"
     pagecolor="#505050"
     bordercolor="#eeeeee"
     borderopacity="1"
     inkscape:showpageshadow="0"
     inkscape:pageopacity="0"
     inkscape:pagecheckerboard="0"
     inkscape:deskcolor="#505050"
     inkscape:document-units="px"
     inkscape:zoom="0.57858903"
     inkscape:cx="3045.3394"
     inkscape:cy="6478.6917"
     inkscape:window-width="3840"
     inkscape:window-height="2054"
     inkscape:window-x="-11"
     inkscape:window-y="-11"
     inkscape:window-maximized="1"
     inkscape:current-layer="layer1"
     showguides="true" /><defs
     id="defs1" /><g
     inkscape:label="Layer 1"
     inkscape:groupmode="layer"
     id="layer1"
     transform="translate(-831.43073,-1606.3232)"><rect
       style="fill:#212332;fill-opacity:1;stroke:none;stroke-width:0.0264714;stroke-dasharray:none;stroke-opacity:1"
       id="rect462"
       width="167.20262"
       height="343.1911"
       x="735.27869"
       y="1579.9421"
       ry="11.555685" /><g
       id="g492"
       transform="translate(0,-9.2888329)"><text
         xml:space="preserve"
         style="font-style:normal;font-variant:normal;font-weight:bold;font-stretch:normal;font-size:11.8913px;font-family:Calibri;-inkscape-font-specification:'Calibri Bold';fill:#ffffff;fill-opacity:1;stroke:none;stroke-width:1.91648;stroke-linecap:round;stroke-linejoin:round"
         x="758.65125"
         y="1629.5405"
         id="text473"><tspan
           sodipodi:role="line"
           id="tspan471"
           style="font-style:normal;font-variant:normal;font-weight:bold;font-stretch:normal;font-family:Calibri;-inkscape-font-specification:'Calibri Bold';fill:#ffffff;fill-opacity:1;stroke:none;stroke-width:1.91648"
           x="758.65125"
           y="1629.5405">Ioi bo$$,</tspan><tspan
           sodipodi:role="line"
           style="font-style:normal;font-variant:normal;font-weight:bold;font-stretch:normal;font-family:Calibri;-inkscape-font-specification:'Calibri Bold';fill:#ffffff;fill-opacity:1;stroke:none;stroke-width:1.91648"
           x="758.65125"
           y="1644.4047"
           id="tspan472">ce ma bucur </tspan><tspan
           sodipodi:role="line"
           style="font-style:normal;font-variant:normal;font-weight:bold;font-stretch:normal;font-family:Calibri;-inkscape-font-specification:'Calibri Bold';fill:#ffffff;fill-opacity:1;stroke:none;stroke-width:1.91648"
           x="758.65125"
           y="1659.2688"
           id="tspan473">sa te vad! </tspan></text><g
         id="g486"
         transform="matrix(0.87841961,0,0,0.87841961,-47.031971,146.71634)"><path
           id="path478"
           style="fill:#ff8426;fill-opacity:1;stroke:none;stroke-width:1.20874;stroke-linecap:round;stroke-linejoin:round"
           d="m 1001.7347,1709.8605 c 3.976,11.2594 14.5955,18.7981 26.5235,18.8288 11.9279,-0.031 22.5474,-7.5694 26.5234,-18.8288 -16.9234,-1.3713 -31.2513,-7.4318 -53.0469,0 z"
           sodipodi:nodetypes="cccc" /><path
           id="path479"
           style="fill:#ffb426;fill-opacity:1;stroke:none;stroke-width:1.20874;stroke-linecap:round;stroke-linejoin:round"
           d="m 1001.7347,1691.0316 c -1.0924,3.0194 -1.6625,6.2032 -1.6857,9.4145 0.022,3.2112 0.5933,6.395 1.6857,9.4144 h 53.0469 c 1.0924,-3.0194 1.6624,-6.2032 1.6857,-9.4144 -9e-4,-3.2073 -0.5473,-6.3909 -1.616,-9.4145 -17.3081,-0.7468 -30.2657,-9.6696 -53.1166,0 z"
           sodipodi:nodetypes="ccccccc" /><path
           id="path480"
           style="fill:#ffcf26;fill-opacity:1;stroke:none;stroke-width:1.20874;stroke-linecap:round;stroke-linejoin:round"
           d="m 1028.2582,1672.2028 a 28.209114,28.243172 0 0 0 -26.5235,18.8288 h 53.1166 a 28.209114,28.243172 0 0 0 -26.5931,-18.8288 z" /><g
           id="g485"
           transform="matrix(5.3005225,0,0,5.0010578,656.9987,1078.8294)"><path
             id="path481"
             style="fill:#2697ff;fill-opacity:1;stroke-width:1.32292"
             d="m -95.322573,100.39958 a 0.55732292,0.55732292 4.0650512 0 1 0.416716,0.66898 0.55732292,0.55732292 4.0650512 0 1 -0.394414,0.40961 l -5e-5,2.16717 0.544027,0.30212 0.982326,-1.18402 a 0.32153246,0.32153246 0 0 1 -0.02966,-0.22418 0.32153246,0.32153246 0 0 1 0.386025,-0.24052 0.32153246,0.32153246 0 0 1 0.240423,0.38599 0.32153246,0.32153246 0 0 1 -0.385896,0.24044 0.32153246,0.32153246 0 0 1 -0.07867,-0.0301 l -0.949181,1.14418 1.466202,0.8144 c 0.675352,0.37511 1.217707,0.92126 1.042957,1.67377 l -0.358294,1.54287 c -0.174753,0.75252 -0.921321,1.21762 -1.673826,1.04287 l -5.802333,-1.34745 c -0.752509,-0.17475 -1.185499,-0.91449 -1.042859,-1.67374 l 0.61541,-3.27543 c 0.14265,-0.75924 0.998384,-1.418 1.673727,-1.04289 l 3.157206,1.75363 10e-7,-2.03211 a 0.55732292,0.55732292 4.0650512 0 1 -0.06197,-0.01 0.55732292,0.55732292 4.0650512 0 1 -0.416845,-0.66889 0.55732292,0.55732292 4.0650512 0 1 0.668983,-0.41686 z"
             transform="matrix(-0.97407962,-0.22620541,-0.22620541,0.97407962,0,0)" /><g
             id="g482"
             transform="translate(-0.03634556,14.268985)"><ellipse
               style="fill:#ffffff;fill-opacity:1;stroke-width:3.20354"
               id="ellipse481"
               cx="71.041306"
               cy="109.92177"
               rx="1.418806"
               ry="1.764856" /><ellipse
               style="fill:#252525;fill-opacity:1;stroke-width:1.32292"
               id="ellipse482"
               cx="70.177216"
               cy="110.04919"
               rx="0.52704352"
               ry="0.85277426" /></g><g
             id="g484"
             transform="translate(1.3891117,13.870939)"><ellipse
               style="fill:#ffffff;fill-opacity:1;stroke-width:1.36183"
               id="ellipse483"
               cx="66.996025"
               cy="110.83292"
               rx="0.60313612"
               ry="0.75024241" /><ellipse
               style="fill:#252525;fill-opacity:1;stroke-width:0.661459"
               id="ellipse484"
               cx="67.356644"
               cy="110.75125"
               rx="0.26352137"
               ry="0.42638654" /></g><ellipse
             style="fill:#252525;fill-opacity:1;stroke-width:1.75421"
             id="ellipse485"
             cx="69.238953"
             cy="126.44719"
             rx="0.49319413"
             ry="0.74846655" /></g></g><path
         style="fill:#ee2727;fill-opacity:1;stroke:none;stroke-width:0.740833;stroke-linecap:round;stroke-linejoin:round;stroke-dasharray:none;stroke-opacity:1"
         d="m 851.40148,1638.4589 -13.26992,-3.8936 6.40035,-1.8314 -9.9055,-4.3859 c 1.39037,-2.5187 3.18679,-4.6952 5.31938,-6.5883 l 8.26742,12.172 -3.90707,1.0554 z"
         id="path487"
         sodipodi:nodetypes="cccccccc" /></g></g></svg>
